HIERARCHY
ROOT Hip
{
   OFFSET 0.00000 0.00000 0.00000
   CHANNELS 6 Xposition Yposition Zposition Zrotation Yrotation Xrotation
   JOINT Head
   {
      OFFSET 0.000000 29.695000 0.000000
      CHANNELS 3 Zrotation Yrotation Xrotation
      End Site
      {
         OFFSET 0.000000 17.692500 0.000000
      }
      JOINT LeftShoulder
      {
         OFFSET 9.818250 0.000000 0.000000
         CHANNELS 3 Zrotation Yrotation Xrotation
         JOINT LeftHand
         {
            OFFSET 0.000000 -14.347499 0.000000
            CHANNELS 3 Zrotation Yrotation Xrotation
            End Site
            {
               OFFSET 0.000000 -15.713750 0.000000
            }
         }
      }
      JOINT RightShoulder
      {
         OFFSET -10.463999 0.000000 0.000000
         CHANNELS 3 Zrotation Yrotation Xrotation
         JOINT RghtHand
         {
            OFFSET 0.000000 -17.191250 0.000000
            CHANNELS 3 Zrotation Yrotation Xrotation
            End Site
            {
               OFFSET 0.000000 -11.776000 0.000000
            }
         }
      }
   }
   JOINT LeftHip
   {
      OFFSET 10.389125 0.000000 0.000000
      CHANNELS 3 Zrotation Yrotation Xrotation
      JOINT LeftKnee
      {
         OFFSET 0.000000 -29.284999 0.000000
         CHANNELS 3 Zrotation Yrotation Xrotation
         JOINT LeftFoot
         {
            OFFSET 0.000000 -22.328751 0.000000
            CHANNELS 3 Zrotation Yrotation Xrotation
            End Site
            {
               OFFSET 0.000000 0.000000 14.551251
            }
         }
      }
   }
   JOINT RightHip
   {
      OFFSET -10.389125 0.000000 0.000000
      CHANNELS 3 Zrotation Yrotation Xrotation
      JOINT RightKnee
      {
         OFFSET 0.000000 -26.503751 0.000000
         CHANNELS 3 Zrotation Yrotation Xrotation
         JOINT RightFoot
         {
            OFFSET 0.000000 -22.730000 0.000000
            CHANNELS 3 Zrotation Yrotation Xrotation
            End Site
            {
               OFFSET 0.000000 0.000000 14.616250
            }
         }
      }
   }
}
MOTION
Frames: 17
Frame Time: 0.016670
7.983791 42.358555 -15.482963 156.810106 94.727374 162.868415 0.394842 27.633386 -29.690781 3.063324 -11.199734 19.285504 -5.872863 -1.147434 22.342471 -28.464844 -15.423633 42.235038 -28.434598 6.313776 44.680499 -22.650444 -60.833981 6.466055 46.193809 -55.788890 16.910275 -18.806227 -54.609384 -40.613592 -2.787484 -56.605251 3.109392 23.354560 -38.166431 0.495367 -18.273273 -41.043498 -32.915703
7.947508 42.312598 -15.471517 190.838108 68.364777 197.595392 3.970702 2.597022 -30.261928 -4.715565 -19.668617 22.249621 -8.392155 -2.798826 20.611247 -36.308746 -17.843659 43.549180 -32.234367 6.816408 40.348560 -11.703059 -70.544789 -1.501893 45.147813 -63.122525 9.308667 -18.550657 -62.528360 -42.562638 -14.297839 -64.800354 22.269514 40.649615 -41.790652 -12.661487 -15.028749 -48.998739 -28.596889
7.927569 42.294726 -15.452775 190.725956 66.475410 197.339779 4.161772 1.770005 -30.149234 -9.356860 -28.972061 24.170019 -11.464581 -4.002132 18.422262 -40.705807 -22.603557 44.867745 -36.499807 7.540230 36.645833 -11.251815 -70.807813 -1.596510 45.444664 -63.256499 9.259318 -18.651124 -62.817236 -42.772574 -15.857377 -64.949833 24.871429 42.462996 -41.356024 -13.448356 -14.909745 -49.141377 -28.158785
7.926124 42.285022 -15.438425 190.735792 65.441327 197.128945 4.362980 1.537510 -29.753660 -14.323998 -37.119367 26.663814 -13.838955 -5.058452 16.178394 -45.140495 -26.971654 46.626450 -40.212322 7.701877 32.809039 -11.564402 -70.919541 -1.055860 45.529624 -63.269559 9.619436 -18.715437 -62.865553 -42.864293 -17.087455 -64.817969 26.704972 43.184281 -41.140586 -13.206259 -14.927609 -48.865110 -27.921907
7.902685 42.278013 -15.413292 190.700521 64.528376 196.912523 4.358678 1.315102 -29.309581 -19.357344 -43.749967 29.816627 -15.549923 -5.912473 13.967686 -49.522389 -30.901839 48.733868 -43.360698 7.435368 29.068329 -11.684629 -71.020929 -0.744884 45.634150 -63.271621 9.834974 -18.788052 -62.919771 -42.959451 -18.405285 -64.814588 28.498432 43.960306 -40.921788 -12.928717 -14.956687 -48.613137 -27.736570
7.875674 42.270212 -15.383305 190.626919 63.784186 196.668016 4.416823 1.109537 -28.865281 -24.265171 -48.712581 33.341760 -16.677652 -6.533531 11.949353 -53.777365 -34.385676 51.042441 -45.995296 6.887407 25.577464 -11.780342 -71.113170 -0.507578 45.652189 -63.302125 9.984961 -18.848756 -62.994104 -43.038969 -19.895482 -64.855884 30.335063 44.777846 -40.686320 -12.580379 -15.012295 -48.362182 -27.618005
7.843919 42.259368 -15.347858 190.563302 63.155419 196.416255 4.433111 1.019555 -28.444495 -28.800978 -52.251787 36.893427 -17.384025 -6.917932 10.218269 -57.839558 -37.415933 53.511250 -48.023750 6.114497 22.407981 -11.929953 -71.170407 -0.266021 45.643644 -63.361227 10.201227 -18.895390 -63.072815 -43.093586 -21.558473 -64.923468 32.274587 45.680233 -40.424625 -12.201803 -15.092643 -48.112194 -27.553652
7.806939 42.246184 -15.291410 190.546896 62.568583 196.239176 4.343332 0.994562 -28.055738 -32.864388 -54.753416 40.289319 -17.872225 -7.086931 8.776967 -61.638024 -39.989610 56.078800 -49.567335 5.236860 19.644867 -11.929831 -71.233327 -0.146252 45.650536 -63.448619 10.359407 -18.953836 -63.187897 -43.167994 -23.296194 -65.112330 34.238458 46.470087 -40.210027 -11.656921 -15.154072 -47.851796 -27.493330
7.788850 42.230892 -15.247838 190.491162 62.325244 195.998617 4.180645 1.331908 -27.603229 -36.480641 -56.478349 43.461972 -18.184752 -7.064197 7.507335 -65.113204 -42.232098 58.578940 -50.693445 4.321906 17.233585 -12.480955 -71.314914 0.467452 45.627122 -63.428449 10.740856 -19.023959 -63.143644 -43.207097 -25.179538 -65.192018 36.195208 47.117339 -39.957010 -10.934060 -15.269426 -47.484534 -27.520227
7.722863 42.211351 -15.144468 190.566034 61.771063 195.983413 4.144631 1.274431 -27.351822 -39.649419 -57.611218 46.379337 -18.349196 -6.865402 6.370428 -68.232668 -44.050468 61.112851 -51.467166 3.416132 15.244677 -11.907625 -71.285107 -0.001504 45.617341 -63.690401 10.764172 -19.064525 -63.443988 -43.301374 -26.955463 -65.758602 38.190173 47.639333 -39.774900 -10.308115 -15.327295 -47.182701 -27.494261
7.685311 42.213606 -15.053948 190.609638 61.543010 195.906109 4.022953 1.582421 -27.036358 -42.510916 -58.334426 49.082429 -18.467331 -6.512349 5.394456 -70.956131 -45.667205 63.561597 -51.898646 2.524305 13.516036 -11.903333 -71.409539 0.106811 45.649481 -63.757760 10.906189 -19.091898 -63.527207 -43.317692 -28.797177 -66.272929 40.124547 47.829581 -39.542222 -9.488385 -15.381789 -46.722654 -27.472962
7.638318 42.199230 -14.940119 190.702584 61.336656 195.895057 3.874603 1.854158 -26.749109 -45.048130 -58.835851 51.532278 -18.680134 -6.027218 4.528766 -73.395901 -47.054041 65.827205 -52.136480 1.689655 12.139271 -11.775303 -71.606610 0.147175 45.746582 -63.812805 10.967280 -19.149135 -63.622543 -43.372562 -30.649746 -66.891908 42.079535 47.885169 -39.346954 -8.667723 -15.483591 -46.291993 -27.534391
7.574479 42.187585 -14.837260 190.718990 61.257071 195.793697 3.714022 2.136818 -26.545407 -47.329410 -59.070652 53.750665 -18.855499 -5.423790 3.805718 -75.586828 -48.316239 67.859309 -52.292519 0.915188 11.060804 -11.701688 -71.583811 0.066403 45.625937 -64.027061 11.144873 -19.143075 -63.827004 -43.381752 -32.513234 -67.472126 43.871172 47.682449 -39.247452 -7.642614 -15.609556 -45.888718 -27.652354
7.506258 42.183508 -14.708515 190.825158 61.203734 195.792714 3.546325 2.316717 -26.306226 -49.348144 -59.101811 55.737728 -19.093498 -4.713064 3.071875 -77.482861 -49.412747 69.768163 -52.333285 0.196201 10.268538 -11.423302 -71.763233 -0.093258 45.630322 -64.157087 11.078613 -19.135849 -64.000266 -43.384340 -34.310516 -68.148492 45.637466 47.344634 -39.165678 -6.661768 -15.717100 -45.513351 -27.757479
7.442448 42.187261 -14.591429 190.861263 61.231109 195.665904 3.179221 2.607260 -25.989712 -51.188136 -59.021686 57.480318 -19.300318 -3.896803 2.446163 -79.194855 -50.282009 71.440090 -52.283380 -0.477418 9.633502 -11.372009 -71.800922 -0.110567 45.484501 -64.320165 11.143174 -19.105566 -64.163883 -43.357160 -36.159650 -68.703589 47.378526 46.954573 -39.098229 -5.675018 -15.810869 -45.180243 -27.861257
7.369756 42.187337 -14.455429 190.942719 61.182772 195.632518 2.882829 2.833285 -25.767225 -52.829099 -58.906447 59.004324 -19.635964 -3.008931 1.908617 -80.767096 -50.950763 72.855470 -52.166048 -1.105804 9.218049 -11.026610 -71.899687 -0.346986 45.466230 -64.448654 11.073496 -19.102818 -64.322863 -43.361125 -37.975613 -69.292952 49.142139 46.603190 -39.028749 -4.737574 -15.909496 -44.889403 -27.975859
7.288649 42.186641 -14.310298 190.989984 61.100318 195.551239 2.686378 3.070702 -25.519778 -54.319439 -58.792533 60.284575 -20.086823 -2.053738 1.382146 -82.159253 -51.545655 74.100552 -52.127403 -1.689251 8.968429 -10.608015 -71.869819 -0.691435 45.380511 -64.635316 11.046779 -19.080671 -64.521061 -43.350548 -39.787901 -69.833753 50.917961 46.269986 -38.972455 -3.859654 -15.994481 -44.650398 -28.078148
